<svg xmlns="http://www.w3.org/2000/svg" width="1600" height="640" viewBox="0 0 1600 640"><rect width="1600" height="640" fill="#ffffff"/><rect x="0" y="0" width="1600" height="86" rx="0" fill="#f4f7fb"/><line x1="0" y1="86" x2="1600" y2="86" stroke="#dde3ea" stroke-width="1"/><rect x="0" y="0" width="8" height="86" rx="0" fill="#0f62fe"/><text x="40" y="34" font-family="IBM Plex Sans, DejaVu Sans, Arial, sans-serif" font-size="14" font-weight="700" fill="#0f62fe" text-anchor="start" letter-spacing="1.2">PHASE 7</text><text x="40" y="64" font-family="IBM Plex Sans, DejaVu Sans, Arial, sans-serif" font-size="24" font-weight="700" fill="#161616" text-anchor="start">Mycobacteriology / TB — the same M-04 workbench, in &#x27;TB profile&#x27;</text><text x="1560" y="52" font-family="IBM Plex Sans, DejaVu Sans, Arial, sans-serif" font-size="13" font-weight="400" fill="#5a6672" text-anchor="end">TB cycle</text><rect x="80" y="165" width="264.0" height="118" rx="12" fill="#fff6e0" stroke="#a06a00" stroke-width="2"/><rect x="80" y="165" width="6" height="118" rx="0" fill="#a06a00"/><text x="215.0" y="224.0" font-family="IBM Plex Sans, DejaVu Sans, Arial, sans-serif" font-size="15" font-weight="600" fill="#161616" text-anchor="middle">AFB smear</text><text x="215.0" y="242.0" font-family="IBM Plex Sans, DejaVu Sans, Arial, sans-serif" font-size="15" font-weight="600" fill="#161616" text-anchor="middle">same day · WHO grade</text><rect x="169.0" y="293" width="86.0" height="22" rx="11" fill="#eef1f4" stroke="#697077" stroke-width="1.3"/><text x="212.0" y="308" font-family="IBM Plex Sans, DejaVu Sans, Arial, sans-serif" font-size="12" font-weight="600" fill="#697077" text-anchor="middle">SMEAR_DONE</text><rect x="374.0" y="165" width="264.0" height="118" rx="12" fill="#fff1f1" stroke="#da1e28" stroke-width="2"/><rect x="374.0" y="165" width="6" height="118" rx="0" fill="#da1e28"/><text x="509.0" y="224.0" font-family="IBM Plex Sans, DejaVu Sans, Arial, sans-serif" font-size="15" font-weight="600" fill="#161616" text-anchor="middle">GeneXpert Ultra</text><text x="509.0" y="242.0" font-family="IBM Plex Sans, DejaVu Sans, Arial, sans-serif" font-size="15" font-weight="600" fill="#161616" text-anchor="middle">MTB ± rif-R</text><rect x="449.0" y="293" width="114.0" height="22" rx="11" fill="#eef1f4" stroke="#697077" stroke-width="1.3"/><text x="506.0" y="308" font-family="IBM Plex Sans, DejaVu Sans, Arial, sans-serif" font-size="12" font-weight="600" fill="#697077" text-anchor="middle">MOLECULAR_DONE</text><rect x="668.0" y="165" width="264.0" height="118" rx="12" fill="#fff6e0" stroke="#a06a00" stroke-width="2"/><rect x="668.0" y="165" width="6" height="118" rx="0" fill="#a06a00"/><text x="803.0" y="224.0" font-family="IBM Plex Sans, DejaVu Sans, Arial, sans-serif" font-size="15" font-weight="600" fill="#161616" text-anchor="middle">MGIT / LJ culture</text><text x="803.0" y="242.0" font-family="IBM Plex Sans, DejaVu Sans, Arial, sans-serif" font-size="15" font-weight="600" fill="#161616" text-anchor="middle">weeks</text><rect x="729.0" y="293" width="142.0" height="22" rx="11" fill="#eef1f4" stroke="#697077" stroke-width="1.3"/><text x="800.0" y="308" font-family="IBM Plex Sans, DejaVu Sans, Arial, sans-serif" font-size="12" font-weight="600" fill="#697077" text-anchor="middle">CULTURE_INCUBATING</text><rect x="962.0" y="165" width="264.0" height="118" rx="12" fill="#fff6e0" stroke="#a06a00" stroke-width="2"/><rect x="962.0" y="165" width="6" height="118" rx="0" fill="#a06a00"/><text x="1097.0" y="224.0" font-family="IBM Plex Sans, DejaVu Sans, Arial, sans-serif" font-size="15" font-weight="600" fill="#161616" text-anchor="middle">Species ID</text><text x="1097.0" y="242.0" font-family="IBM Plex Sans, DejaVu Sans, Arial, sans-serif" font-size="15" font-weight="600" fill="#161616" text-anchor="middle">MTB vs NTM</text><rect x="1051.0" y="293" width="86.0" height="22" rx="11" fill="#eef1f4" stroke="#697077" stroke-width="1.3"/><text x="1094.0" y="308" font-family="IBM Plex Sans, DejaVu Sans, Arial, sans-serif" font-size="12" font-weight="600" fill="#697077" text-anchor="middle">SPECIES_ID</text><rect x="1256.0" y="165" width="264.0" height="118" rx="12" fill="#fff6e0" stroke="#a06a00" stroke-width="2"/><rect x="1256.0" y="165" width="6" height="118" rx="0" fill="#a06a00"/><text x="1391.0" y="224.0" font-family="IBM Plex Sans, DejaVu Sans, Arial, sans-serif" font-size="15" font-weight="600" fill="#161616" text-anchor="middle">DST</text><text x="1391.0" y="242.0" font-family="IBM Plex Sans, DejaVu Sans, Arial, sans-serif" font-size="15" font-weight="600" fill="#161616" text-anchor="middle">WHO critical conc.</text><rect x="1338.0" y="293" width="100.0" height="22" rx="11" fill="#eef1f4" stroke="#697077" stroke-width="1.3"/><text x="1388.0" y="308" font-family="IBM Plex Sans, DejaVu Sans, Arial, sans-serif" font-size="12" font-weight="600" fill="#697077" text-anchor="middle">DST → REVIEW</text><line x1="344.0" y1="224.0" x2="363.0" y2="224.0" stroke="#0f62fe" stroke-width="2.4"/><polygon points="374.0,224.0 365.78219953718923,227.66984407753614 365.78219953718923,220.33015592246386" fill="#0f62fe"/><line x1="638.0" y1="224.0" x2="657.0" y2="224.0" stroke="#0f62fe" stroke-width="2.4"/><polygon points="668.0,224.0 659.7821995371892,227.66984407753614 659.7821995371892,220.33015592246386" fill="#0f62fe"/><line x1="932.0" y1="224.0" x2="951.0" y2="224.0" stroke="#0f62fe" stroke-width="2.4"/><polygon points="962.0,224.0 953.7821995371892,227.66984407753614 953.7821995371892,220.33015592246386" fill="#0f62fe"/><line x1="1226.0" y1="224.0" x2="1245.0" y2="224.0" stroke="#0f62fe" stroke-width="2.4"/><polygon points="1256.0,224.0 1247.7821995371892,227.66984407753614 1247.7821995371892,220.33015592246386" fill="#0f62fe"/><text x="506.0" y="320" font-family="IBM Plex Sans, DejaVu Sans, Arial, sans-serif" font-size="12" font-weight="400" fill="#da1e28" text-anchor="middle">rif-R → critical notify (M-11)</text><text x="1094.0" y="320" font-family="IBM Plex Sans, DejaVu Sans, Arial, sans-serif" font-size="12" font-weight="400" fill="#5a6672" text-anchor="middle">NTM → off-ramp DST</text><rect x="1080" y="360" width="460" height="80" rx="12" fill="#fff1f1" stroke="#da1e28" stroke-width="2"/><rect x="1080" y="360" width="6" height="80" rx="0" fill="#da1e28"/><text x="1313.0" y="400.0" font-family="IBM Plex Sans, DejaVu Sans, Arial, sans-serif" font-size="15" font-weight="600" fill="#161616" text-anchor="middle">Auto-classify from drug profile</text><text x="1313.0" y="418.0" font-family="IBM Plex Sans, DejaVu Sans, Arial, sans-serif" font-size="15" font-weight="600" fill="#161616" text-anchor="middle">MDR / pre-XDR / XDR</text><line x1="1388.0" y1="283" x2="1317.8281934486577" y2="352.27216800581226" stroke="#da1e28" stroke-width="2.4"/><polygon points="1310.0,360 1313.2700539335715,351.6150881178433 1318.4264063837652,356.838406184273" fill="#da1e28"/><rect x="60" y="360" width="760" height="80" rx="12" fill="#eef1f4" stroke="#697077" stroke-width="2"/><rect x="60" y="360" width="6" height="80" rx="0" fill="#697077"/><text x="443.0" y="409.0" font-family="IBM Plex Sans, DejaVu Sans, Arial, sans-serif" font-size="15" font-weight="600" fill="#161616" text-anchor="middle">Reuses M-04 Case/Isolate/Timeline · M-05 micro_ast_run (interpretation_method = CRITICAL_CONCENTRATION) · M-08 · M-11 · M-12</text><line x1="40" y1="544" x2="1560" y2="544" stroke="#e2e7ec" stroke-width="1"/><text x="40" y="570" font-family="IBM Plex Sans, DejaVu Sans, Arial, sans-serif" font-size="14" font-weight="400" fill="#5a6672" text-anchor="start">TB is mostly profile configuration + the WHO-TB breakpoint family, not net-new infrastructure.</text><text x="40" y="590" font-family="IBM Plex Sans, DejaVu Sans, Arial, sans-serif" font-size="14" font-weight="400" fill="#5a6672" text-anchor="start">Each step releases a staged interim report (clinicians can&#x27;t wait weeks); DST reconciles with the molecular rif call.</text><text x="40" y="624" font-family="IBM Plex Sans, DejaVu Sans, Arial, sans-serif" font-size="12" font-weight="400" fill="#5a6672" text-anchor="start">OpenELIS Global — Microbiology / AMR module · Workflow Walk-through v2.1</text><text x="1560" y="624" font-family="IBM Plex Sans, DejaVu Sans, Arial, sans-serif" font-size="12" font-weight="400" fill="#5a6672" text-anchor="end">schematic — see narrative for detail</text></svg>